<svg xmlns="http://www.w3.org/2000/svg" width="122.676" height="26.078" viewBox="0 0 122.676 26.078"><g id="Group_4276" data-name="Group 4276" transform="translate(0 -0.034)"><path id="Path_2128" data-name="Path 2128" d="M624.7,588.447a1.793,1.793,0,0,1,2.006-2.005h16.029a1.792,1.792,0,0,1,2.005,2.005v1.458a1.792,1.792,0,0,1-2.005,2.005H631.077v5.469H641.09a1.793,1.793,0,0,1,2.006,2.005v1.459a1.792,1.792,0,0,1-2.006,2.005H631.077V610.5a1.792,1.792,0,0,1-2.005,2.005H626.7A1.792,1.792,0,0,1,624.7,610.5Z" transform="translate(-624.697 -586.399)" fill="#fff"></path><path id="Path_2129" data-name="Path 2129" d="M734.6,588.447a1.793,1.793,0,0,1,2.005-2.005h7.073a13.49,13.49,0,0,1,5.068.62c2.954,1.13,4.813,3.791,4.813,7.584,0,2.771-1.312,5.8-3.9,7.109v.073a14.812,14.812,0,0,1,.985,1.568l3.719,6.708c.8,1.386.182,2.406-1.385,2.406H750.2a2.474,2.474,0,0,1-2.37-1.422l-3.864-7.365h-2.99V610.5a1.792,1.792,0,0,1-2.005,2.005H736.6A1.792,1.792,0,0,1,734.6,610.5Zm9.151,9.807a2.983,2.983,0,0,0,3.318-3.208c0-1.312-.328-2.3-1.531-2.771a6.069,6.069,0,0,0-2.407-.364h-2.151v6.344Z" transform="translate(-684.29 -586.399)" fill="#fff"></path><path id="Path_2130" data-name="Path 2130" d="M786.15,591.911h-4.86a1.792,1.792,0,0,1-2.005-2.005v-1.458a1.792,1.792,0,0,1,2.005-2.005h16.1a1.792,1.792,0,0,1,2,2.005v1.458a1.792,1.792,0,0,1-2,2.005H792.53V610.5a1.792,1.792,0,0,1-2.006,2.005h-2.369a1.792,1.792,0,0,1-2.005-2.005Z" transform="translate(-708.521 -586.399)" fill="#fff"></path><path id="Path_2131" data-name="Path 2131" d="M827.072,588.447a1.793,1.793,0,0,1,2.005-2.005h2.37a1.792,1.792,0,0,1,2.005,2.005v8.422H840.8v-8.422a1.792,1.792,0,0,1,2.005-2.005h2.37a1.792,1.792,0,0,1,2.005,2.005V610.5a1.792,1.792,0,0,1-2.005,2.005h-2.37A1.792,1.792,0,0,1,840.8,610.5v-8.2h-7.351v8.2a1.792,1.792,0,0,1-2.005,2.005h-2.37a1.792,1.792,0,0,1-2.005-2.005Z" transform="translate(-734.433 -586.399)" fill="#fff"></path><path id="Path_2132" data-name="Path 2132" d="M684.268,586.442a13.034,13.034,0,1,0,13.027,13.465l.008,0V586.442Zm6.628,13.252h0a6.628,6.628,0,1,1-6.624-6.847H690.9Z" transform="translate(-649.931 -586.399)" fill="#fff"></path><path id="Path_2133" data-name="Path 2133" d="M881.452,586.423a3.335,3.335,0,1,0,3.336,3.335A3.339,3.339,0,0,0,881.452,586.423Zm0,5.752a2.417,2.417,0,1,1,2.417-2.417A2.42,2.42,0,0,1,881.452,592.175Zm1.212-2.851a1.084,1.084,0,0,0-1.232-1.092H880.3v3.051h.646v-.85h.481l.089,0,.622.852h.8l-.758-1.038A1.038,1.038,0,0,0,882.664,589.324Zm-1.232.463h-.481v-.908h.481c.586,0,.586.335.586.445S882.018,589.787,881.431,589.787Z" transform="translate(-762.112 -586.389)" fill="#fff"></path></g></svg>