<svg xmlns="http://www.w3.org/2000/svg" width="205.303" height="27.783" viewBox="0 0 205.303 27.783"><g id="Group_4586" data-name="Group 4586" transform="translate(0 0)"><path id="Path_2128" data-name="Path 2128" d="M624.7,588.571a1.9,1.9,0,0,1,2.129-2.129h17.018a1.9,1.9,0,0,1,2.129,2.129v1.548a1.9,1.9,0,0,1-2.129,2.129H631.471v5.806H642.1a1.9,1.9,0,0,1,2.129,2.129v1.549a1.9,1.9,0,0,1-2.129,2.129H631.471v8.128a1.9,1.9,0,0,1-2.129,2.129h-2.516a1.9,1.9,0,0,1-2.129-2.129Z" transform="translate(-624.697 -586.388)"></path><path id="Path_2129" data-name="Path 2129" d="M734.6,588.571a1.9,1.9,0,0,1,2.129-2.129h7.51a14.323,14.323,0,0,1,5.38.658c3.136,1.2,5.11,4.025,5.11,8.052,0,2.941-1.393,6.155-4.142,7.548v.078a15.724,15.724,0,0,1,1.045,1.664l3.948,7.122c.851,1.471.193,2.555-1.471,2.555h-2.942a2.626,2.626,0,0,1-2.516-1.51l-4.1-7.819h-3.174v7.2a1.9,1.9,0,0,1-2.129,2.129h-2.516a1.9,1.9,0,0,1-2.129-2.129Zm9.716,10.412c2.168,0,3.523-1.2,3.523-3.406,0-1.393-.349-2.439-1.625-2.942a6.444,6.444,0,0,0-2.555-.387h-2.284v6.735Z" transform="translate(-681.185 -586.388)"></path><path id="Path_2130" data-name="Path 2130" d="M786.573,592.248h-5.16a1.9,1.9,0,0,1-2.129-2.129v-1.548a1.9,1.9,0,0,1,2.129-2.129h17.095a1.9,1.9,0,0,1,2.128,2.129v1.548a1.9,1.9,0,0,1-2.128,2.129h-5.161V611.99a1.9,1.9,0,0,1-2.129,2.129H788.7a1.9,1.9,0,0,1-2.129-2.129Z" transform="translate(-704.153 -586.388)"></path><path id="Path_2131" data-name="Path 2131" d="M827.072,588.571a1.9,1.9,0,0,1,2.129-2.129h2.516a1.9,1.9,0,0,1,2.129,2.129v8.942h7.8v-8.942a1.9,1.9,0,0,1,2.129-2.129H846.3a1.9,1.9,0,0,1,2.129,2.129V611.99a1.9,1.9,0,0,1-2.129,2.129H843.78a1.9,1.9,0,0,1-2.129-2.129v-8.71h-7.8v8.71a1.9,1.9,0,0,1-2.129,2.129H829.2a1.9,1.9,0,0,1-2.129-2.129Z" transform="translate(-728.716 -586.388)"></path><path id="Path_2132" data-name="Path 2132" d="M685.072,586.442a13.839,13.839,0,1,0,13.831,14.3l.008,0V586.442Zm7.037,14.07h0a7.037,7.037,0,1,1-7.033-7.27h7.037Z" transform="translate(-648.617 -586.388)"></path><path id="Path_2133" data-name="Path 2133" d="M881.658,586.423a3.541,3.541,0,1,0,3.541,3.541A3.545,3.545,0,0,0,881.658,586.423Zm0,6.107a2.566,2.566,0,1,1,2.566-2.567A2.569,2.569,0,0,1,881.658,592.53Zm1.286-3.027a1.15,1.15,0,0,0-1.308-1.159h-1.2v3.239h.686v-.9h.511l.094,0,.66.9h.85l-.8-1.1A1.1,1.1,0,0,0,882.944,589.5Zm-1.308.492h-.511v-.965h.511c.623,0,.623.356.623.473S882.258,589.995,881.636,589.995Z" transform="translate(-754.953 -586.379)"></path><g id="Group_2312" data-name="Group 2312" transform="translate(140.413)"><path id="Path_2134" data-name="Path 2134" d="M931.876,590.724,929.7,586.98c-.133-.223-.031-.4.234-.4h.407a.391.391,0,0,1,.387.234l1.211,2.127c.214.407.438.905.438.905h.021s.213-.5.437-.905l1.2-2.127a.391.391,0,0,1,.387-.234h.406c.265,0,.367.174.234.4l-2.177,3.744v2.707a.3.3,0,0,1-.336.336h-.335a.3.3,0,0,1-.336-.336Z" transform="translate(-929.641 -586.461)"></path><path id="Path_2135" data-name="Path 2135" d="M949.6,586.332a3.584,3.584,0,0,1,3.683,3.663,3.689,3.689,0,1,1-7.377,0A3.592,3.592,0,0,1,949.6,586.332Zm0,6.5a2.682,2.682,0,0,0,2.645-2.839,2.652,2.652,0,1,0-5.3,0A2.69,2.69,0,0,0,949.6,592.833Z" transform="translate(-938.002 -586.332)"></path><path id="Path_2136" data-name="Path 2136" d="M967.916,586.919a.3.3,0,0,1,.336-.336h.336a.294.294,0,0,1,.326.336v4.293a1.822,1.822,0,0,0,3.642-.01v-4.283a.3.3,0,0,1,.335-.336h.336a.3.3,0,0,1,.335.336v4.3a2.828,2.828,0,0,1-5.647,0Z" transform="translate(-949.314 -586.461)"></path><path id="Path_2137" data-name="Path 2137" d="M987.309,586.919a.3.3,0,0,1,.336-.336h1.933a3.141,3.141,0,0,1,1.343.193,1.95,1.95,0,0,1,1.129,1.882,2,2,0,0,1-1.282,1.974v.02a1.9,1.9,0,0,1,.214.325l1.292,2.391c.133.234.031.4-.224.4h-.406a.4.4,0,0,1-.4-.234l-1.4-2.625h-1.536v2.523a.3.3,0,0,1-.336.336h-.325a.3.3,0,0,1-.336-.336Zm2.441,3.113a1.226,1.226,0,0,0,1.282-1.333,1.132,1.132,0,0,0-.671-1.119,2.006,2.006,0,0,0-.855-.122h-1.2v2.574Z" transform="translate(-959.282 -586.461)"></path><path id="Path_2138" data-name="Path 2138" d="M931.226,607.862a.3.3,0,0,1,.336-.336h2.289a2.136,2.136,0,0,1,2.249,2.249,2.161,2.161,0,0,1-2.249,2.279h-1.628v2.32a.3.3,0,0,1-.335.335h-.325a.3.3,0,0,1-.336-.335Zm2.462,3.317a1.3,1.3,0,0,0,1.394-1.4A1.27,1.27,0,0,0,933.7,608.4h-1.476v2.778Z" transform="translate(-930.456 -597.225)"></path><path id="Path_2139" data-name="Path 2139" d="M947.895,607.862a.3.3,0,0,1,.336-.336h3.5a.3.3,0,0,1,.336.336v.2a.3.3,0,0,1-.336.336h-2.839v2.248h2.249a.3.3,0,0,1,.336.336v.2a.3.3,0,0,1-.336.335h-2.249v2.309H951.9a.3.3,0,0,1,.336.336v.2a.3.3,0,0,1-.336.335h-3.673a.3.3,0,0,1-.336-.335Z" transform="translate(-939.023 -597.225)"></path><path id="Path_2140" data-name="Path 2140" d="M963.707,607.862a.3.3,0,0,1,.336-.336h1.933a3.154,3.154,0,0,1,1.343.193,1.951,1.951,0,0,1,1.129,1.882,2,2,0,0,1-1.282,1.974v.02a1.845,1.845,0,0,1,.214.326l1.292,2.391c.132.234.03.4-.224.4h-.407a.4.4,0,0,1-.4-.234l-1.4-2.625H964.7v2.524a.3.3,0,0,1-.336.335h-.325a.3.3,0,0,1-.336-.335Zm2.441,3.113a1.226,1.226,0,0,0,1.282-1.333,1.133,1.133,0,0,0-.671-1.119,2,2,0,0,0-.855-.122h-1.2v2.574Z" transform="translate(-947.151 -597.225)"></path><path id="Path_2141" data-name="Path 2141" d="M979.968,613.491l.173-.244a.3.3,0,0,1,.458-.061,2.65,2.65,0,0,0,1.567.58c.763,0,1.262-.407,1.262-1.027,0-1.588-3.459-1.231-3.459-3.469a2.1,2.1,0,0,1,2.33-1.994,3.112,3.112,0,0,1,1.8.55.32.32,0,0,1,.1.457l-.143.254c-.121.214-.284.193-.457.092a2.5,2.5,0,0,0-1.323-.417c-.742,0-1.292.387-1.292,1.007,0,1.547,3.459,1.129,3.459,3.439a2.068,2.068,0,0,1-2.279,2.045,3.557,3.557,0,0,1-2.157-.743A.306.306,0,0,1,979.968,613.491Z" transform="translate(-955.463 -597.096)"></path><path id="Path_2142" data-name="Path 2142" d="M999,607.275a3.584,3.584,0,0,1,3.683,3.663,3.689,3.689,0,1,1-7.376,0A3.592,3.592,0,0,1,999,607.275Zm0,6.5a2.683,2.683,0,0,0,2.646-2.839,2.652,2.652,0,1,0-5.3,0A2.691,2.691,0,0,0,999,613.776Z" transform="translate(-963.395 -597.096)"></path><path id="Path_2143" data-name="Path 2143" d="M1017.507,607.862a.3.3,0,0,1,.336-.336h.386a.419.419,0,0,1,.407.224l3.063,4.446c.254.387.59,1.038.59,1.038h.021s-.061-.641-.061-1.038v-4.334a.3.3,0,0,1,.336-.336h.325a.3.3,0,0,1,.335.336v6.512a.3.3,0,0,1-.335.335h-.387a.406.406,0,0,1-.4-.224l-3.073-4.436c-.254-.4-.59-1.048-.59-1.048h-.02s.061.64.061,1.048v4.324a.3.3,0,0,1-.336.335h-.326a.3.3,0,0,1-.336-.335Z" transform="translate(-974.803 -597.225)"></path><path id="Path_2144" data-name="Path 2144" d="M1038.1,607.8a.353.353,0,0,1,.377-.274h.488a.361.361,0,0,1,.376.274l2.361,6.522a.263.263,0,0,1-.275.387h-.345a.364.364,0,0,1-.377-.275l-.641-1.791h-2.707l-.631,1.791a.352.352,0,0,1-.366.275h-.346c-.255,0-.356-.153-.274-.387Zm1.7,4.009-.794-2.279c-.122-.366-.275-1.017-.275-1.017h-.02s-.163.651-.285,1.017l-.8,2.279Z" transform="translate(-984.161 -597.225)"></path><path id="Path_2145" data-name="Path 2145" d="M1054.47,607.862a.3.3,0,0,1,.336-.336h.325a.3.3,0,0,1,.336.336v5.972h2.889a.3.3,0,0,1,.336.336v.2a.3.3,0,0,1-.336.335h-3.55a.3.3,0,0,1-.336-.335Z" transform="translate(-993.802 -597.225)"></path><path id="Path_2146" data-name="Path 2146" d="M931.226,628.8a.3.3,0,0,1,.336-.336h2.176a1.841,1.841,0,0,1,2.077,1.832,1.673,1.673,0,0,1-.886,1.546v.02a1.73,1.73,0,0,1,1.18,1.74,2.065,2.065,0,0,1-2.319,2.045h-2.228a.3.3,0,0,1-.336-.335Zm2.512,2.686A1.018,1.018,0,0,0,934.8,630.4a.994.994,0,0,0-1.079-1.058h-1.5v2.147Zm.1,3.286a1.149,1.149,0,0,0,1.241-1.221,1.167,1.167,0,0,0-1.241-1.231h-1.618v2.452Z" transform="translate(-930.456 -607.989)"></path><path id="Path_2147" data-name="Path 2147" d="M948.335,628.8a.3.3,0,0,1,.336-.336h3.5a.3.3,0,0,1,.336.336v.2a.3.3,0,0,1-.336.336h-2.839v2.248h2.249a.3.3,0,0,1,.335.336v.2a.3.3,0,0,1-.335.336h-2.249v2.309h3.012a.3.3,0,0,1,.335.336v.2a.3.3,0,0,1-.335.335h-3.673a.3.3,0,0,1-.336-.335Z" transform="translate(-939.25 -607.989)"></path><path id="Path_2148" data-name="Path 2148" d="M963.3,634.433l.172-.244a.3.3,0,0,1,.458-.061,2.65,2.65,0,0,0,1.567.58c.763,0,1.262-.407,1.262-1.028,0-1.587-3.459-1.231-3.459-3.469a2.1,2.1,0,0,1,2.329-1.994,3.119,3.119,0,0,1,1.8.549.322.322,0,0,1,.1.458l-.143.255c-.122.213-.285.193-.458.091a2.5,2.5,0,0,0-1.323-.417c-.742,0-1.292.387-1.292,1.007,0,1.547,3.459,1.129,3.459,3.439a2.067,2.067,0,0,1-2.279,2.045,3.559,3.559,0,0,1-2.157-.743A.306.306,0,0,1,963.3,634.433Z" transform="translate(-946.894 -607.861)"></path><path id="Path_2149" data-name="Path 2149" d="M980.3,629.343h-2.136a.3.3,0,0,1-.336-.336v-.2a.3.3,0,0,1,.336-.336h5.27a.294.294,0,0,1,.326.336v.2a.3.3,0,0,1-.326.336h-2.137v5.973a.3.3,0,0,1-.336.335h-.335a.294.294,0,0,1-.326-.335Z" transform="translate(-954.406 -607.989)"></path></g></g></svg>